<svg width="960" height="560" xmlns="http://www.w3.org/2000/svg" font-family="Segoe UI, Arial, sans-serif">
  <!-- Background -->
  <rect width="960" height="560" fill="#F5F7FA"/>

  <!-- ========== ON-PREMISE BOX ========== -->
  <rect x="20" y="50" width="420" height="440" rx="12" fill="#EBF5FB" stroke="#2980B9" stroke-width="2" stroke-dasharray="8,4"/>
  <rect x="20" y="50" width="420" height="36" rx="12" fill="#2980B9"/>
  <rect x="20" y="74" width="420" height="12" fill="#2980B9"/>
  <text x="230" y="74" text-anchor="middle" font-size="14" font-weight="bold" fill="white">On-Premise  —  ESXi</text>

  <!-- DC1 -->
  <rect x="40" y="106" width="175" height="90" rx="8" fill="white" stroke="#2471A3" stroke-width="1.5"/>
  <rect x="40" y="106" width="175" height="28" rx="8" fill="#2471A3"/>
  <rect x="40" y="122" width="175" height="12" fill="#2471A3"/>
  <text x="127" y="124" text-anchor="middle" font-size="12" font-weight="bold" fill="white">DC1</text>
  <text x="127" y="150" text-anchor="middle" font-size="11" fill="#1A5276">Active Directory DS</text>
  <text x="127" y="165" text-anchor="middle" font-size="11" fill="#1A5276">DNS Server</text>
  <text x="127" y="183" text-anchor="middle" font-size="11" font-weight="bold" fill="#2980B9">10.10.200.11</text>

  <!-- EXCH -->
  <rect x="235" y="106" width="185" height="90" rx="8" fill="white" stroke="#16A085" stroke-width="1.5"/>
  <rect x="235" y="106" width="185" height="28" rx="8" fill="#16A085"/>
  <rect x="235" y="122" width="185" height="12" fill="#16A085"/>
  <text x="327" y="124" text-anchor="middle" font-size="12" font-weight="bold" fill="white">EXCH</text>
  <text x="327" y="150" text-anchor="middle" font-size="11" fill="#0E6655">Exchange Server 2019</text>
  <text x="327" y="165" text-anchor="middle" font-size="11" fill="#0E6655">Mailbox Role</text>
  <text x="327" y="183" text-anchor="middle" font-size="11" font-weight="bold" fill="#16A085">10.10.200.13</text>

  <!-- SYNC -->
  <rect x="40" y="220" width="175" height="90" rx="8" fill="white" stroke="#8E44AD" stroke-width="1.5"/>
  <rect x="40" y="220" width="175" height="28" rx="8" fill="#8E44AD"/>
  <rect x="40" y="236" width="175" height="12" fill="#8E44AD"/>
  <text x="127" y="238" text-anchor="middle" font-size="12" font-weight="bold" fill="white">SYNC</text>
  <text x="127" y="264" text-anchor="middle" font-size="11" fill="#6C3483">Microsoft Entra Connect</text>
  <text x="127" y="279" text-anchor="middle" font-size="11" fill="#6C3483">PHS + SSPR Writeback</text>
  <text x="127" y="297" text-anchor="middle" font-size="11" font-weight="bold" fill="#8E44AD">10.10.200.15</text>

  <!-- WIN11-01 -->
  <rect x="235" y="220" width="185" height="90" rx="8" fill="white" stroke="#2471A3" stroke-width="1.5"/>
  <rect x="235" y="220" width="185" height="28" rx="8" fill="#2471A3"/>
  <rect x="235" y="236" width="185" height="12" fill="#2471A3"/>
  <text x="327" y="238" text-anchor="middle" font-size="12" font-weight="bold" fill="white">WS2022-01</text>
  <text x="327" y="264" text-anchor="middle" font-size="11" fill="#1A5276">Windows Server 2022</text>
  <text x="327" y="279" text-anchor="middle" font-size="11" fill="#1A5276">Domain Joined</text>
  <text x="327" y="297" text-anchor="middle" font-size="11" font-weight="bold" fill="#2980B9">10.10.200.17</text>

  <!-- Domain label -->
  <rect x="80" y="340" width="280" height="32" rx="6" fill="#D6EAF8" stroke="#2980B9" stroke-width="1"/>
  <text x="220" y="362" text-anchor="middle" font-size="12" font-weight="bold" fill="#1A5276">Domain: anhlx.lab  |  NetBIOS: ANHLX</text>

  <!-- Gateway -->
  <rect x="140" y="392" width="160" height="32" rx="6" fill="#FDEBD0" stroke="#E67E22" stroke-width="1.5"/>
  <text x="220" y="413" text-anchor="middle" font-size="12" font-weight="bold" fill="#784212">GW: 10.10.200.1</text>

  <!-- Lines DC1 → domain label -->
  <line x1="127" y1="196" x2="185" y2="340" stroke="#2980B9" stroke-width="1.2" stroke-dasharray="3,2"/>
  <!-- Lines EXCH → domain label -->
  <line x1="327" y1="196" x2="280" y2="340" stroke="#2980B9" stroke-width="1.2" stroke-dasharray="3,2"/>
  <!-- Lines SYNC → domain label -->
  <line x1="127" y1="310" x2="175" y2="340" stroke="#2980B9" stroke-width="1.2" stroke-dasharray="3,2"/>
  <!-- Lines WIN11-01 → domain label -->
  <line x1="327" y1="310" x2="285" y2="340" stroke="#2980B9" stroke-width="1.2" stroke-dasharray="3,2"/>
  <!-- domain → GW -->
  <line x1="220" y1="372" x2="220" y2="392" stroke="#E67E22" stroke-width="1.5"/>

  <!-- ========== INTERNET CLOUD ========== -->
  <ellipse cx="560" cy="280" rx="68" ry="45" fill="#EBF5FB" stroke="#85C1E9" stroke-width="2"/>
  <text x="560" y="274" text-anchor="middle" font-size="13" font-weight="bold" fill="#2471A3">Internet</text>
  <text x="560" y="291" text-anchor="middle" font-size="11" fill="#2471A3">HTTPS / 443</text>

  <!-- GW → Internet -->
  <line x1="300" y1="408" x2="494" y2="292" stroke="#E67E22" stroke-width="1.5" stroke-dasharray="6,3"/>
  <polygon points="494,292 482,289 487,300" fill="#E67E22"/>

  <!-- ========== AZURE BOX ========== -->
  <rect x="660" y="50" width="280" height="440" rx="12" fill="#FEF9E7" stroke="#E91E63" stroke-width="2" stroke-dasharray="8,4"/>
  <rect x="660" y="50" width="280" height="36" rx="12" fill="#C0392B"/>
  <rect x="660" y="74" width="280" height="12" fill="#C0392B"/>
  <text x="800" y="74" text-anchor="middle" font-size="14" font-weight="bold" fill="white">Microsoft Azure  /  M365 Trial</text>

  <!-- Entra ID -->
  <rect x="678" y="106" width="244" height="100" rx="8" fill="white" stroke="#5D6D7E" stroke-width="1.5"/>
  <rect x="678" y="106" width="244" height="28" rx="8" fill="#1A73E8"/>
  <rect x="678" y="122" width="244" height="12" fill="#1A73E8"/>
  <text x="800" y="124" text-anchor="middle" font-size="12" font-weight="bold" fill="white">Microsoft Entra ID</text>
  <text x="800" y="150" text-anchor="middle" font-size="11" fill="#1A5276">(Azure Active Directory)</text>
  <text x="800" y="166" text-anchor="middle" font-size="11" fill="#1A5276">AnhLe267.onmicrosoft.com</text>
  <text x="800" y="184" text-anchor="middle" font-size="11" fill="#2E86C1">Users, Groups, Licenses</text>

  <!-- Exchange Online -->
  <rect x="678" y="228" width="244" height="100" rx="8" fill="white" stroke="#5D6D7E" stroke-width="1.5"/>
  <rect x="678" y="228" width="244" height="28" rx="8" fill="#0078D4"/>
  <rect x="678" y="244" width="244" height="12" fill="#0078D4"/>
  <text x="800" y="246" text-anchor="middle" font-size="12" font-weight="bold" fill="white">Exchange Online</text>
  <text x="800" y="272" text-anchor="middle" font-size="11" fill="#154360">M365 Mail Service</text>
  <text x="800" y="288" text-anchor="middle" font-size="11" fill="#154360">Shared GAL, Free/Busy</text>
  <text x="800" y="306" text-anchor="middle" font-size="11" fill="#154360">Mailbox Migration</text>

  <!-- M365 Apps -->
  <rect x="678" y="348" width="244" height="80" rx="8" fill="white" stroke="#5D6D7E" stroke-width="1.5"/>
  <rect x="678" y="348" width="244" height="28" rx="8" fill="#217346"/>
  <rect x="678" y="364" width="244" height="12" fill="#217346"/>
  <text x="800" y="366" text-anchor="middle" font-size="12" font-weight="bold" fill="white">M365 Apps</text>
  <text x="800" y="392" text-anchor="middle" font-size="11" fill="#1E8449">Teams, SharePoint</text>
  <text x="800" y="408" text-anchor="middle" font-size="11" fill="#1E8449">OneDrive, Outlook Web</text>

  <!-- Internet → Entra ID -->
  <line x1="628" y1="265" x2="678" y2="180" stroke="#1A73E8" stroke-width="2"/>
  <polygon points="678,180 667,183 672,193" fill="#1A73E8"/>

  <!-- ========== KEY CONNECTIONS ========== -->

  <!-- SYNC → Internet (Entra Connect sync) -->
  <path d="M215 265 Q 390 150 492 255" stroke="#8E44AD" stroke-width="2.5" fill="none"/>
  <polygon points="492,255 480,250 483,262" fill="#8E44AD"/>
  <rect x="275" y="148" width="148" height="22" rx="4" fill="#F4ECF7" stroke="#8E44AD" stroke-width="1"/>
  <text x="349" y="163" text-anchor="middle" font-size="10" font-weight="bold" fill="#6C3483">Entra Connect Sync (PHS)</text>

  <!-- EXCH → Exchange Online (Hybrid) -->
  <path d="M420 150 Q 560 60 678 268" stroke="#0078D4" stroke-width="2" fill="none" stroke-dasharray="8,4"/>
  <polygon points="678,268 666,261 672,272" fill="#0078D4"/>
  <rect x="490" y="55" width="130" height="20" rx="4" fill="#EBF5FB" stroke="#0078D4" stroke-width="1"/>
  <text x="555" y="69" text-anchor="middle" font-size="10" font-weight="bold" fill="#154360">Exchange Hybrid (HCW)</text>

  <!-- Password Writeback arrow -->
  <path d="M 492 300 Q 390 190 215 290" stroke="#E74C3C" stroke-width="2" fill="none" stroke-dasharray="5,3"/>
  <polygon points="215,290 226,283 228,295" fill="#E74C3C"/>
  <rect x="255" y="195" width="130" height="20" rx="4" fill="#FDEDEC" stroke="#E74C3C" stroke-width="1"/>
  <text x="320" y="209" text-anchor="middle" font-size="10" font-weight="bold" fill="#922B21">Password Writeback</text>

  <!-- ========== LEGEND ========== -->
  <rect x="20" y="500" width="920" height="50" rx="6" fill="#EAECEE" stroke="#BDC3C7" stroke-width="1"/>
  <text x="35" y="519" font-size="11" font-weight="bold" fill="#2C3E50">Legend:</text>

  <line x1="90" y1="515" x2="120" y2="515" stroke="#8E44AD" stroke-width="2.5"/>
  <text x="125" y="519" font-size="10" fill="#2C3E50">Entra Connect (PHS)</text>

  <line x1="258" y1="515" x2="288" y2="515" stroke="#0078D4" stroke-width="2" stroke-dasharray="8,4"/>
  <text x="293" y="519" font-size="10" fill="#2C3E50">Exchange Hybrid</text>

  <line x1="408" y1="515" x2="438" y2="515" stroke="#E74C3C" stroke-width="2" stroke-dasharray="5,3"/>
  <text x="443" y="519" font-size="10" fill="#2C3E50">Password Writeback</text>

  <line x1="568" y1="515" x2="598" y2="515" stroke="#E67E22" stroke-width="1.5" stroke-dasharray="6,3"/>
  <text x="603" y="519" font-size="10" fill="#2C3E50">Internet (HTTPS)</text>

  <text x="35" y="540" font-size="10" fill="#566573">* anhlx.lab = internal AD domain (non-routable)  |  AnhLe267.onmicrosoft.com = M365 trial tenant domain  |  UPN suffix added to AD users for cloud sync</text>
</svg>
