<?xml version="1.0" standalone="no"?>
<!DOCTYPE svg PUBLIC "-//W3C//DTD SVG 20010904//EN"
 "http://www.w3.org/TR/2001/REC-SVG-20010904/DTD/svg10.dtd">
<svg version="1.0" xmlns="http://www.w3.org/2000/svg"
 width="2560.000000pt" height="2149.000000pt" viewBox="0 0 2560.000000 2149.000000"
 preserveAspectRatio="xMidYMid meet">

<g transform="translate(0.000000,2149.000000) scale(0.100000,-0.100000)"
fill="#000000" stroke="none">
<path d="M13655 20781 c-12 -10 -171 -31 -238 -31 -31 0 -49 -5 -53 -14 -3 -8
-29 -16 -66 -20 -34 -4 -71 -14 -82 -22 -11 -8 -31 -14 -43 -14 -13 0 -32 -9
-43 -20 -11 -11 -35 -23 -53 -27 -18 -3 -43 -14 -56 -25 -13 -10 -30 -18 -38
-18 -7 0 -16 -6 -19 -14 -3 -8 -20 -18 -37 -22 -18 -4 -37 -14 -43 -22 -14
-20 -86 -19 -145 1 -45 16 -90 22 -244 34 -108 8 -142 8 -310 -7 -83 -7 -135
-16 -145 -25 -8 -7 -40 -17 -70 -21 -30 -4 -67 -13 -82 -20 -15 -8 -35 -14
-45 -14 -10 0 -39 -11 -65 -25 -26 -14 -52 -25 -59 -25 -18 0 -117 -50 -130
-66 -6 -8 -18 -14 -26 -14 -17 0 -73 -38 -91 -62 -7 -10 -20 -18 -28 -18 -8 0
-29 -10 -46 -22 -34 -26 -278 -265 -278 -274 0 -5 -57 -82 -70 -94 -9 -8 -44
-64 -58 -90 -6 -14 -23 -43 -37 -65 -13 -22 -27 -47 -30 -55 -4 -8 -15 -31
-26 -51 -10 -20 -19 -43 -19 -50 0 -7 -8 -31 -18 -53 -10 -23 -23 -54 -28 -71
-5 -17 -21 -36 -37 -43 -24 -11 -35 -11 -79 4 -71 23 -319 24 -403 1 -32 -10
-81 -17 -107 -17 -26 0 -70 -9 -98 -20 -28 -11 -64 -20 -80 -20 -16 0 -52 -9
-80 -20 -28 -11 -62 -20 -76 -20 -21 0 -60 -16 -124 -52 -8 -4 -26 -13 -40
-19 -14 -6 -41 -19 -60 -28 -19 -10 -52 -21 -72 -25 -21 -4 -38 -11 -38 -16 0
-5 -11 -12 -24 -16 -14 -3 -32 -14 -42 -25 -9 -10 -23 -19 -31 -19 -7 0 -16
-6 -19 -14 -3 -8 -30 -27 -60 -42 -31 -15 -60 -36 -65 -46 -5 -10 -17 -18 -26
-18 -9 0 -81 -64 -161 -142 -126 -125 -164 -168 -207 -237 -25 -39 -50 -76
-55 -81 -28 -27 -110 -161 -110 -181 0 -7 -6 -20 -14 -28 -7 -9 -26 -45 -40
-81 -15 -36 -36 -82 -47 -102 -10 -20 -19 -44 -19 -53 0 -8 -9 -41 -20 -72
-11 -32 -20 -70 -20 -85 0 -15 -9 -49 -19 -76 -11 -27 -23 -82 -26 -123 -4
-41 -13 -114 -21 -164 -16 -102 -17 -241 -3 -330 5 -33 14 -103 20 -155 6 -57
18 -110 29 -133 11 -21 20 -49 20 -63 0 -14 9 -42 20 -64 11 -22 20 -50 20
-64 0 -13 6 -31 13 -38 7 -7 26 -39 41 -70 16 -32 37 -65 48 -74 10 -10 18
-27 18 -39 0 -13 7 -28 15 -35 8 -6 17 -22 21 -33 4 -12 23 -38 43 -57 20 -20
56 -60 81 -90 75 -93 219 -225 307 -283 26 -17 54 -37 60 -43 7 -7 26 -15 43
-19 16 -4 30 -10 30 -15 0 -5 10 -12 23 -16 12 -4 33 -15 46 -25 13 -11 31
-19 41 -19 9 0 27 -8 38 -19 12 -10 43 -21 69 -24 27 -3 62 -13 78 -21 17 -9
39 -16 50 -16 11 0 33 -7 49 -15 57 -30 391 -65 617 -65 153 0 209 -3 216 -12
6 -7 13 -50 17 -95 5 -58 13 -93 29 -120 36 -60 104 -122 164 -148 l55 -25
919 0 c898 0 919 0 929 -19 13 -26 13 -117 -1 -143 -11 -20 -16 -20 -922 -17
-982 3 -951 5 -1024 -48 -17 -13 -36 -23 -41 -23 -5 0 -32 -32 -58 -72 l-49
-72 -3 -320 c-5 -395 2 -521 29 -544 10 -9 19 -22 19 -28 0 -42 104 -117 197
-140 63 -16 138 -17 954 -11 l886 7 11 -26 c15 -31 17 -421 3 -457 -5 -14 -23
-29 -39 -35 -15 -5 -51 -36 -78 -67 l-49 -58 -752 5 c-557 4 -757 3 -775 -6
-48 -24 -50 -103 -3 -124 20 -9 219 -12 775 -12 543 0 755 -3 773 -11 14 -6
28 -21 31 -33 3 -12 29 -38 58 -57 46 -30 61 -34 113 -33 33 0 74 4 90 9 29 7
85 57 85 76 0 5 5 9 11 9 6 0 19 10 29 23 18 22 20 22 396 29 208 4 411 12
452 18 40 5 98 10 128 10 l54 0 0 40 c0 22 5 40 10 40 6 0 10 -18 10 -40 l0
-40 80 0 80 0 0 43 0 44 -589 6 c-576 7 -590 7 -625 28 -20 11 -36 27 -36 34
0 7 -20 32 -44 55 -30 29 -47 56 -54 84 -13 58 -10 422 4 436 14 14 87 17 799
30 874 16 1014 20 1038 30 15 6 5 7 -29 3 -29 -3 -91 -2 -138 2 -81 6 -86 8
-86 30 l0 23 -237 4 c-131 3 -553 6 -938 7 -385 0 -1077 4 -1538 8 -794 6
-839 7 -859 25 -12 10 -26 18 -33 18 -16 0 -48 38 -68 83 -15 33 -17 77 -16
365 0 282 3 334 18 376 22 63 75 103 152 115 30 5 473 10 985 12 511 1 932 4
936 6 4 2 114 5 245 8 131 2 487 9 792 15 335 6 557 14 561 20 3 5 57 11 120
13 67 1 15 4 -125 6 -216 3 -232 5 -160 14 44 5 82 13 85 18 3 4 23 9 45 11
22 2 -312 7 -743 11 -431 5 -786 6 -790 3 -11 -12 -29 49 -31 107 -1 37 3 62
11 71 11 11 143 14 698 16 605 2 1139 13 893 18 -46 1 -83 6 -83 11 0 11 106
22 178 17 47 -3 50 -2 17 4 -36 6 -33 7 30 10 55 2 64 4 40 10 -45 11 -105 11
-105 0 0 -14 -77 -13 -82 1 -3 8 -94 13 -293 16 -160 3 -499 9 -755 14 -256 6
-480 7 -499 4 -22 -4 -37 -2 -41 5 -9 14 43 14 -640 12 -574 -2 -1171 5 -1280
14 -83 7 -125 32 -153 93 -20 44 -21 58 -18 376 2 182 7 338 12 347 5 9 9 27
9 40 0 28 43 72 80 83 14 4 34 13 46 20 16 10 280 14 1295 19 1236 6 2329 18
2162 24 -107 4 -109 22 -3 22 64 0 80 3 80 15 0 11 12 15 43 16 l42 2 -50 7
c-27 5 -115 9 -195 10 -80 1 -167 5 -195 10 -48 7 -46 7 35 10 134 5 -343 17
-821 21 l-437 4 2 76 c1 48 6 82 15 92 12 15 59 17 470 18 684 2 1117 12 1014
23 -46 4 -83 12 -83 16 0 13 133 20 200 10 84 -12 120 -12 120 0 0 6 -35 11
-82 12 l-83 2 85 6 c47 3 72 8 55 9 -73 7 -381 16 -492 14 -68 -1 -123 2 -123
7 0 19 -440 27 -1915 36 -1119 7 -1161 8 -1185 26 -14 10 -35 27 -48 36 -42
32 -51 107 -52 433 0 242 3 305 15 340 19 53 57 95 99 109 19 6 429 14 1091
20 583 6 1269 13 1525 15 256 3 546 10 645 17 99 6 215 12 257 12 46 1 77 5
75 11 -2 5 -38 9 -83 7 -43 -1 -122 5 -174 13 l-95 14 123 -4 c97 -4 122 -2
122 9 0 10 -29 15 -117 20 -189 10 -1402 24 -2403 28 -910 3 -1030 -1 -1048
-29 -4 -6 -16 -13 -28 -17 -49 -15 -134 -127 -134 -178 -1 -13 -7 -34 -15 -48
-22 -38 -22 -652 0 -703 8 -20 15 -46 15 -58 0 -30 56 -112 101 -148 21 -17
41 -31 45 -31 4 0 16 -8 27 -17 18 -17 79 -18 961 -19 l941 -1 12 -24 c16 -31
17 -121 1 -137 -9 -9 -225 -12 -909 -12 -884 0 -898 0 -965 -21 -48 -15 -85
-35 -121 -66 -29 -24 -53 -49 -53 -55 0 -5 -9 -21 -20 -35 -11 -14 -20 -39
-20 -55 0 -16 -6 -39 -12 -51 -9 -15 -15 -90 -18 -227 l-5 -205 -285 -3 c-322
-3 -447 10 -556 60 -22 10 -51 18 -63 18 -31 0 -281 124 -345 171 -110 82
-176 134 -176 142 0 4 -6 7 -12 8 -7 0 -38 30 -68 66 -30 35 -74 86 -96 111
-46 51 -64 80 -120 190 -21 40 -44 78 -51 84 -7 6 -13 18 -13 27 0 9 -6 25
-14 36 -7 11 -21 49 -31 85 -10 36 -24 90 -32 120 -8 30 -19 60 -23 65 -10 13
-23 225 -21 355 3 139 17 283 30 308 6 12 11 37 11 57 0 20 9 57 19 83 11 26
22 68 25 94 3 26 24 85 46 131 22 46 40 89 40 94 0 6 6 16 14 22 8 7 17 27 20
45 4 19 13 39 21 46 7 6 17 25 20 41 4 16 12 32 18 36 7 5 35 42 62 83 27 41
52 77 55 80 3 3 19 23 35 45 16 22 48 58 71 80 167 164 249 235 279 245 19 6
35 16 35 21 0 5 10 13 23 18 12 5 44 25 70 45 26 20 51 36 56 36 4 0 18 9 31
20 13 11 30 20 39 20 9 0 30 9 46 20 17 11 40 20 52 20 12 0 57 18 99 40 51
26 91 40 116 40 21 0 53 6 71 13 18 8 64 19 102 26 39 7 89 20 112 28 34 12
87 14 291 12 179 -3 253 -7 264 -16 12 -10 23 -9 56 7 46 23 54 34 71 105 7
27 16 54 21 60 4 5 11 25 15 43 7 32 76 173 99 202 7 8 17 28 24 43 12 28 21
41 55 78 9 10 17 22 17 25 0 6 25 38 88 113 71 85 205 202 287 251 22 13 59
39 83 57 24 18 56 36 70 40 15 3 38 14 51 25 13 10 38 18 56 18 19 0 39 8 50
20 10 11 31 20 47 20 16 0 42 7 59 15 16 9 55 20 87 26 31 5 74 16 95 24 28
11 86 15 238 15 168 0 209 -3 257 -19 31 -10 98 -21 148 -25 88 -5 92 -5 160
29 39 18 85 47 103 64 21 20 43 31 63 31 16 0 50 11 76 25 26 14 52 25 58 25
6 0 17 6 23 14 6 7 41 16 80 19 38 3 84 14 103 24 29 16 62 18 303 18 240 0
274 -2 305 -18 19 -10 57 -21 84 -23 27 -3 54 -11 60 -18 6 -8 33 -16 60 -20
27 -3 54 -12 60 -20 6 -8 27 -17 48 -20 20 -4 39 -13 42 -21 3 -8 17 -15 30
-15 14 0 31 -9 38 -19 8 -11 30 -22 50 -26 20 -4 39 -13 42 -21 3 -8 12 -14
20 -14 7 0 17 -7 20 -16 3 -8 9 -13 14 -10 4 2 16 -8 27 -24 10 -16 31 -31 46
-34 16 -3 30 -14 34 -26 3 -11 10 -20 15 -20 14 0 70 -54 70 -67 0 -7 6 -13
13 -13 14 0 67 -56 67 -71 0 -5 7 -9 15 -9 8 0 15 -4 15 -9 0 -6 10 -21 23
-35 46 -50 57 -66 63 -91 3 -14 13 -25 23 -25 11 0 17 -10 18 -32 1 -17 12
-41 23 -53 11 -12 20 -33 20 -48 0 -20 5 -27 20 -27 17 0 20 -7 20 -40 0 -29
5 -42 20 -50 16 -9 20 -21 20 -66 0 -30 4 -53 9 -50 15 9 30 -17 37 -64 4 -25
13 -52 21 -61 11 -14 14 -71 16 -299 0 -174 5 -284 11 -287 5 -4 43 -6 83 -5
61 1 77 -2 93 -18 17 -17 34 -20 118 -20 l98 0 37 36 c21 20 36 39 34 41 -3 2
-66 5 -141 7 -109 3 -140 7 -155 20 -18 17 -48 21 -75 10 -18 -7 -21 -30 -6
-37 6 -3 5 -4 -2 -3 -8 1 -14 21 -16 45 -2 24 0 41 5 38 4 -3 7 18 6 46 -1 29
-2 139 -2 245 -1 164 -3 192 -16 192 -11 0 -15 -11 -15 -40 0 -29 -4 -40 -15
-40 -20 0 -20 66 0 86 14 15 14 24 -1 92 l-7 27 -7 -25 c-7 -22 -8 -20 -10 15
-1 22 -3 45 -5 50 -1 6 -3 25 -3 43 -2 25 -6 32 -23 32 -11 0 -18 4 -14 9 10
17 -8 94 -27 113 -10 10 -18 27 -18 38 0 13 -7 20 -19 20 -14 0 -21 10 -25 35
-4 21 -13 35 -21 35 -10 0 -15 11 -15 35 0 22 -5 35 -13 35 -7 0 -20 15 -28
33 -8 17 -20 31 -27 30 -6 -2 -12 6 -12 17 0 11 -6 20 -13 20 -6 0 -18 13 -25
29 -14 32 -155 179 -214 224 -20 15 -44 27 -52 27 -9 0 -16 8 -16 19 0 13 -9
21 -29 26 -15 3 -45 21 -66 40 -21 19 -42 35 -47 35 -5 0 -21 9 -35 20 -14 11
-34 20 -44 20 -11 0 -19 4 -19 9 0 5 -17 17 -37 26 -21 10 -41 22 -44 28 -4 5
-28 11 -55 14 -27 3 -55 12 -61 21 -8 9 -39 19 -78 23 -35 5 -75 15 -87 22
-13 9 -64 17 -119 21 -52 3 -121 13 -153 21 -62 16 -176 20 -191 6z m1472
-833 c-3 -8 -6 -5 -6 6 -1 11 2 17 5 13 3 -3 4 -12 1 -19z m553 -1058 c0 -22
-6 -23 -99 -14 -102 11 -73 26 62 32 31 2 37 -1 37 -18z m-1457 -3517 c-13 -2
-33 -2 -45 0 -13 2 -3 4 22 4 25 0 35 -2 23 -4z m-1385 -2095 c7 -7 12 -36 12
-64 0 -42 -5 -58 -24 -78 -53 -58 -156 -14 -156 65 0 60 34 89 103 89 29 0 58
-5 65 -12z"/>
<path d="M15815 18880 c-3 -5 1 -10 9 -10 9 0 16 -5 16 -11 0 -7 -12 -9 -35
-5 -43 8 -55 2 -48 -24 7 -26 43 -26 71 0 12 11 29 20 39 21 15 0 14 2 -4 11
-13 6 -23 15 -23 20 0 11 -17 10 -25 -2z"/>
<path d="M15908 18853 c-21 -5 -24 -23 -4 -23 8 0 16 7 20 15 3 8 4 14 3 14
-1 -1 -10 -3 -19 -6z"/>
<path d="M15880 18786 c0 -9 5 -16 10 -16 6 0 10 4 10 9 0 6 -4 13 -10 16 -5
3 -10 -1 -10 -9z"/>
<path d="M15996 18771 c-9 -14 5 -42 16 -35 6 4 5 10 -3 15 -12 8 -11 11 1 19
9 6 10 10 3 10 -6 0 -14 -4 -17 -9z"/>
<path d="M16155 18690 c-4 -12 -4 -24 -1 -27 3 -4 6 1 6 10 0 13 9 17 34 17
19 0 36 -5 38 -12 3 -8 6 -7 10 3 3 9 1 16 -5 17 -7 1 -26 4 -44 8 -26 5 -32
2 -38 -16z"/>
<path d="M10520 18680 c0 -5 4 -10 9 -10 6 0 13 5 16 10 3 6 -1 10 -9 10 -9 0
-16 -4 -16 -10z"/>
<path d="M10366 18635 c-11 -8 -37 -15 -58 -15 -24 0 -41 -5 -44 -14 -3 -8
-26 -20 -52 -27 -26 -7 -53 -19 -60 -26 -7 -7 -22 -13 -32 -13 -10 0 -25 -6
-32 -12 -28 -27 -95 -68 -111 -68 -9 0 -20 -6 -24 -13 -4 -7 -30 -29 -57 -48
-67 -46 -266 -243 -266 -262 0 -9 -8 -22 -18 -29 -32 -24 -142 -202 -149 -240
-3 -21 -9 -38 -14 -38 -4 0 -13 -17 -20 -37 -6 -21 -16 -44 -22 -51 -5 -7 -16
-36 -23 -65 -7 -28 -20 -70 -28 -92 -8 -22 -15 -54 -16 -71 0 -17 -7 -48 -15
-68 -14 -32 -23 -108 -42 -329 -6 -67 0 -99 23 -121 21 -22 54 -19 84 5 23 20
25 29 31 138 4 64 14 154 23 201 30 152 67 300 82 328 7 15 14 34 14 43 0 9 6
22 14 28 7 6 16 26 19 44 5 30 31 78 72 132 8 10 15 25 15 32 0 31 219 282
295 340 121 92 108 82 210 148 39 25 78 45 87 45 27 0 48 11 48 25 0 9 18 16
47 21 28 4 54 15 63 26 11 14 28 19 68 20 28 0 52 4 52 9 0 8 -22 13 -42 10
-5 0 -8 4 -8 9 0 6 5 10 10 10 16 0 11 27 -6 34 -29 11 -99 6 -118 -9z m108
-19 c-3 -9 -13 -16 -22 -16 -13 0 -12 3 3 20 20 23 29 21 19 -4z"/>
<path d="M16205 18620 c-3 -5 1 -10 10 -10 9 0 13 5 10 10 -3 6 -8 10 -10 10
-2 0 -7 -4 -10 -10z"/>
<path d="M10560 18599 c0 -5 5 -7 10 -4 6 3 10 8 10 11 0 2 -4 4 -10 4 -5 0
-10 -5 -10 -11z"/>
<path d="M16370 18510 c11 -20 30 -28 30 -12 0 11 -22 32 -32 32 -5 0 -4 -9 2
-20z"/>
<path d="M16540 18356 c0 -8 5 -18 10 -21 6 -3 10 3 10 14 0 12 -4 21 -10 21
-5 0 -10 -6 -10 -14z"/>
<path d="M16665 18280 c3 -5 8 -10 11 -10 2 0 4 5 4 10 0 6 -5 10 -11 10 -5 0
-7 -4 -4 -10z"/>
<path d="M14438 17993 c23 -2 42 -8 42 -14 0 -5 18 -9 40 -9 29 0 40 4 40 15
0 12 -15 15 -82 13 -46 -1 -64 -3 -40 -5z"/>
<path d="M14138 17681 c-44 -13 -64 -76 -35 -114 11 -16 26 -17 138 -11 l126
7 10 43 10 42 -61 12 c-82 16 -171 26 -188 21z"/>
<path d="M13653 17664 c-36 -15 -49 -44 -33 -73 19 -37 45 -43 159 -36 104 7
107 8 119 35 16 35 6 59 -27 66 -14 3 -39 10 -55 15 -42 13 -126 10 -163 -7z"/>
<path d="M11045 17589 c-22 -17 -46 -42 -54 -57 -8 -15 -18 -30 -24 -33 -5 -4
-10 -42 -10 -85 0 -74 2 -82 33 -127 19 -26 54 -59 79 -74 39 -23 52 -25 113
-21 53 4 74 10 89 27 11 11 27 21 36 21 9 0 13 3 10 7 -4 3 0 15 9 24 14 16
15 23 4 49 -7 17 -10 33 -6 37 3 3 6 -1 6 -9 0 -9 8 -18 19 -21 18 -4 18 -2 5
45 -14 53 -7 105 8 58 5 -18 7 -11 4 22 -3 37 -12 58 -46 100 -46 59 -68 67
-175 67 -51 0 -66 -5 -100 -30z m171 -94 c10 -8 29 -15 40 -15 24 0 34 -23 34
-82 0 -44 -21 -68 -60 -68 -16 0 -32 -4 -35 -10 -10 -17 -38 -11 -70 14 -26
21 -30 30 -29 71 2 76 70 128 120 90z"/>
<path d="M11637 17606 c-9 -9 -29 -21 -44 -27 -15 -5 -39 -26 -53 -46 -22 -32
-25 -47 -25 -123 0 -101 9 -119 88 -181 l52 -42 75 6 c51 4 78 11 86 21 6 9
16 16 23 16 6 0 16 11 21 25 5 14 14 25 20 25 5 0 10 11 10 25 0 14 5 25 10
25 6 0 10 18 10 40 0 29 -4 40 -15 40 -23 0 -18 18 10 36 24 16 34 44 16 44
-5 0 -14 13 -19 29 -6 16 -23 38 -39 48 -15 10 -33 24 -38 31 -7 8 -42 16 -91
19 -66 5 -83 3 -97 -11z m155 -118 c47 -23 47 -24 48 -71 0 -39 -5 -53 -22
-68 -13 -10 -30 -18 -39 -19 -9 0 -22 -6 -29 -14 -26 -33 -110 45 -110 102 0
15 78 92 94 92 6 0 32 -10 58 -22z"/>
<path d="M12128 17572 c-27 -27 -48 -53 -48 -57 0 -5 -7 -16 -16 -26 -21 -23
-23 -115 -2 -154 8 -17 21 -41 27 -56 7 -14 37 -40 68 -58 50 -31 60 -33 124
-29 55 3 73 8 89 26 11 12 27 22 35 22 8 0 17 15 21 36 4 21 10 31 14 24 5 -9
9 -8 13 2 7 21 -4 71 -19 83 -15 11 -8 55 7 55 5 0 9 13 9 30 0 22 -4 28 -15
24 -12 -5 -15 3 -15 35 0 23 -4 41 -10 41 -5 0 -18 9 -28 20 -15 17 -35 21
-113 25 l-94 5 -47 -48z m192 -82 c13 -11 29 -20 37 -20 9 0 13 -17 13 -64 0
-74 -6 -79 -93 -77 -59 1 -74 12 -83 57 -9 50 2 79 38 103 41 26 59 26 88 1z"/>
<path d="M13636 17457 c-26 -19 -26 -75 -1 -93 13 -10 49 -14 119 -13 107 1
147 8 147 24 1 6 5 15 10 21 5 6 5 14 1 18 -4 4 -7 13 -7 19 0 24 -240 45
-269 24z"/>
<path d="M14122 17461 c-36 -9 -53 -47 -36 -80 17 -33 45 -38 168 -29 105 8
110 10 121 46 5 16 2 22 -9 22 -9 0 -15 5 -13 12 3 18 -184 41 -231 29z"/>
<path d="M11921 17363 c1 -53 6 -49 11 10 2 20 0 37 -4 37 -4 0 -8 -21 -7 -47z"/>
<path d="M13643 17254 c-46 -11 -34 -99 16 -110 14 -3 31 -7 36 -9 6 -1 53 4
105 11 52 7 97 13 100 14 3 0 4 20 2 45 l-4 45 -42 0 c-24 0 -76 2 -117 4 -41
3 -84 2 -96 0z"/>
<path d="M14096 17237 c-24 -36 -12 -76 28 -92 25 -11 49 -10 131 1 55 7 106
13 113 14 19 0 14 54 -7 72 -14 12 -50 18 -134 24 l-115 7 -16 -26z"/>
<path d="M14485 16815 c23 -8 85 -10 85 -3 0 4 -21 8 -47 7 -27 0 -43 -2 -38
-4z"/>
<path d="M16801 16724 c0 -11 3 -14 6 -6 3 7 2 16 -1 19 -3 4 -6 -2 -5 -13z"/>
<path d="M14700 16546 c0 -2 7 -6 15 -10 8 -3 15 -1 15 4 0 6 -7 10 -15 10 -8
0 -15 -2 -15 -4z"/>
<path d="M14480 16505 c0 -30 4 -31 30 -5 26 26 25 30 -5 30 -20 0 -25 -5 -25
-25z"/>
<path d="M14568 16513 c7 -3 16 -2 19 1 4 3 -2 6 -13 5 -11 0 -14 -3 -6 -6z"/>
<path d="M16640 16435 c0 -8 2 -15 4 -15 2 0 6 7 10 15 3 8 1 15 -4 15 -6 0
-10 -7 -10 -15z"/>
<path d="M16540 16380 c-9 -6 -10 -10 -3 -10 6 0 15 5 18 10 8 12 4 12 -15 0z"/>
<path d="M16566 16361 c-4 -5 3 -7 14 -4 23 6 26 13 6 13 -8 0 -17 -4 -20 -9z"/>
<path d="M16508 16283 c7 -3 16 -2 19 1 4 3 -2 6 -13 5 -11 0 -14 -3 -6 -6z"/>
<path d="M13638 16223 c-32 -33 -36 -70 -10 -80 9 -4 23 -13 30 -20 22 -22
221 -15 207 7 -3 4 6 15 20 24 30 19 32 46 7 69 -14 13 -46 19 -123 23 l-104
6 -27 -29z"/>
<path d="M14097 16227 c-24 -37 -21 -55 14 -88 29 -27 37 -29 109 -29 64 0 85
4 114 23 48 30 54 52 22 84 -24 23 -34 26 -134 31 -108 5 -108 5 -125 -21z"/>
<path d="M16366 16225 c-3 -9 0 -15 8 -15 8 0 16 7 20 15 3 9 0 15 -8 15 -8 0
-16 -7 -20 -15z"/>
<path d="M11664 16182 c-116 -38 -166 -124 -150 -255 13 -103 115 -184 227
-180 53 2 60 6 108 52 28 27 51 56 51 64 0 8 7 17 15 21 22 8 18 45 -7 67 -20
16 -20 18 -5 19 29 0 23 77 -9 111 -15 15 -32 37 -38 49 -9 18 -117 72 -136
69 -3 -1 -28 -8 -56 -17z m135 -134 c2 -6 12 -18 22 -26 58 -50 -24 -163 -107
-147 -27 5 -38 14 -55 47 -28 54 -12 102 46 136 22 13 88 6 94 -10z"/>
<path d="M11125 16183 c-41 -5 -88 -34 -138 -86 -25 -27 -27 -36 -30 -124 -2
-81 0 -96 16 -104 9 -6 17 -16 17 -23 0 -18 32 -53 61 -66 13 -6 35 -17 48
-24 29 -17 141 -10 157 10 6 8 15 14 20 14 18 0 66 60 60 75 -3 10 1 15 14 15
22 0 31 36 15 63 -7 12 -7 20 0 25 13 9 12 40 -3 72 -10 24 -11 24 -11 3 -1
-13 -6 -23 -12 -23 -8 0 -10 16 -7 48 6 54 2 72 -18 72 -8 0 -14 4 -14 10 0
13 -65 40 -105 44 -16 1 -48 1 -70 -1z m136 -144 c24 -24 29 -47 21 -94 -6
-34 -12 -42 -42 -52 -88 -30 -140 -4 -140 72 0 68 13 93 52 97 48 6 89 -3 109
-23z"/>
<path d="M12199 16176 c-66 -15 -92 -39 -125 -112 -29 -66 -31 -127 -4 -179
27 -54 70 -105 88 -105 9 0 24 -7 34 -17 23 -21 137 -20 154 2 6 8 23 19 38
24 18 8 28 20 33 42 3 17 13 34 22 36 23 6 30 203 7 203 -8 0 -17 13 -21 30
-4 17 -12 30 -18 30 -7 0 -17 8 -24 19 -11 17 -31 24 -100 35 -16 3 -53 -1
-84 -8z m147 -131 c22 -14 35 -68 26 -112 -10 -53 -114 -71 -157 -28 -27 26
-34 80 -14 116 24 45 95 56 145 24z"/>
<path d="M16280 16140 c0 -5 7 -10 15 -10 8 0 15 5 15 10 0 6 -7 10 -15 10 -8
0 -15 -4 -15 -10z"/>
<path d="M16329 16113 c-13 -17 -13 -17 6 -3 11 8 22 16 24 17 2 2 0 3 -6 3
-6 0 -17 -8 -24 -17z"/>
<path d="M16240 16099 c0 -5 5 -7 10 -4 6 3 10 8 10 11 0 2 -4 4 -10 4 -5 0
-10 -5 -10 -11z"/>
<path d="M16130 16060 c0 -5 7 -10 15 -10 8 0 15 5 15 10 0 6 -7 10 -15 10 -8
0 -15 -4 -15 -10z"/>
<path d="M16185 16041 c-29 -7 -29 -7 -9 -19 18 -9 24 -9 34 3 6 7 26 16 43
18 32 4 32 4 -3 4 -19 0 -48 -2 -65 -6z"/>
<path d="M13643 16021 c-39 -24 -44 -60 -12 -90 26 -24 51 -27 167 -23 71 3
92 7 92 18 0 8 6 17 14 20 20 8 7 52 -18 60 -11 4 -24 11 -27 17 -4 5 -47 11
-95 14 -77 4 -93 2 -121 -16z"/>
<path d="M14112 16017 c-30 -32 -26 -73 8 -98 22 -17 37 -18 122 -13 110 8
129 14 108 39 -11 14 -10 17 8 22 21 5 32 33 13 33 -5 0 -17 7 -26 16 -11 12
-42 17 -113 21 -94 5 -98 5 -120 -20z"/>
<path d="M16058 16023 c7 -3 16 -2 19 1 4 3 -2 6 -13 5 -11 0 -14 -3 -6 -6z"/>
<path d="M15987 15993 c-23 -6 -12 -23 16 -23 17 0 19 2 8 9 -11 7 -10 10 5
14 10 2 12 5 4 5 -8 0 -23 -2 -33 -5z"/>
<path d="M16063 15973 c9 -2 17 -11 17 -20 0 -13 3 -13 16 -2 14 12 14 14 -3
20 -10 4 -25 7 -33 7 -10 0 -9 -2 3 -5z"/>
<path d="M15858 15943 c12 -2 32 -2 45 0 12 2 2 4 -23 4 -25 0 -35 -2 -22 -4z"/>
<path d="M15760 15904 c0 -10 12 -14 40 -14 22 0 40 -4 40 -8 0 -10 116 -10
126 1 4 4 -22 7 -58 7 -37 0 -68 4 -70 8 -1 5 -20 12 -40 15 -29 4 -38 2 -38
-9z"/>
<path d="M15705 15897 c-11 -7 -22 -14 -25 -17 -3 -3 -168 -3 -368 0 -299 4
-361 3 -357 -8 3 -8 5 -17 5 -22 0 -5 10 -11 23 -13 19 -4 18 -4 -5 -6 -42 -2
-33 -21 10 -22 20 -1 29 -3 19 -6 -11 -3 -16 -11 -13 -19 7 -18 -30 -19 -37
-1 -4 9 -8 9 -16 -3 -5 -8 -7 -18 -5 -22 3 -4 99 -8 215 -8 179 0 209 2 209
15 0 15 16 20 58 16 12 -1 22 2 22 7 0 4 61 6 135 4 l134 -3 15 35 c13 30 20
36 45 36 17 0 31 5 31 10 0 6 -9 10 -19 10 -11 0 -26 7 -35 15 -17 17 -15 17
-41 2z m-137 -60 c61 0 112 -4 112 -9 0 -4 -26 -8 -59 -8 -32 0 -85 -2 -117
-4 -47 -3 -51 -2 -19 4 28 5 3 7 -82 8 -81 1 -123 6 -123 13 0 8 26 9 88 3 48
-4 138 -7 200 -7z"/>
<path d="M15820 15850 c-24 -8 -23 -8 8 -9 17 -1 32 4 32 9 0 11 -5 11 -40 0z"/>
<path d="M13695 15831 c-3 -5 -19 -12 -36 -16 -61 -14 -56 -95 7 -111 13 -4
73 -2 132 2 105 9 107 9 108 34 0 14 3 31 8 38 8 13 7 14 -74 35 -79 21 -138
28 -145 18z"/>
<path d="M14130 15828 c-38 -20 -51 -55 -36 -92 7 -17 21 -33 31 -35 10 -2 69
0 130 4 l112 7 11 36 c6 20 10 37 8 39 -7 7 -143 42 -186 47 -29 4 -54 2 -70
-6z"/>
<path d="M14648 15463 c7 -3 16 -2 19 1 4 3 -2 6 -13 5 -11 0 -14 -3 -6 -6z"/>
<path d="M14720 15410 c0 -6 7 -10 15 -10 8 0 15 2 15 4 0 2 -7 6 -15 10 -8 3
-15 1 -15 -4z"/>
<path d="M14720 15100 c0 -6 7 -10 15 -10 8 0 15 2 15 4 0 2 -7 6 -15 10 -8 3
-15 1 -15 -4z"/>
<path d="M13643 14798 c-43 -21 -35 -92 13 -104 28 -7 212 2 237 12 20 7 29
56 14 71 -7 6 -56 16 -109 22 -115 13 -126 13 -155 -1z"/>
<path d="M14109 14800 c-25 -15 -32 -58 -14 -86 14 -22 22 -24 88 -24 71 0
185 14 195 25 3 2 1 19 -4 37 -6 22 -17 34 -35 39 -49 13 -214 19 -230 9z"/>
<path d="M11080 14735 c-53 -31 -90 -64 -90 -81 0 -7 -8 -17 -17 -23 -24 -13
-25 -171 -1 -195 9 -9 19 -24 22 -34 10 -29 64 -63 121 -77 59 -13 78 -13 118
4 16 6 37 11 48 11 10 0 19 7 19 15 0 8 7 15 15 15 8 0 15 7 15 15 0 8 8 23
18 33 10 10 17 23 15 29 -2 6 1 14 6 18 7 4 7 12 -1 25 -10 15 -10 22 0 32 6
6 12 16 12 21 0 13 -25 -15 -34 -38 -6 -14 -10 -16 -13 -7 -6 16 16 72 28 72
5 0 9 15 8 33 0 17 -3 26 -6 20 -2 -7 -12 -13 -21 -13 -12 0 -13 3 -5 11 18
18 -5 68 -41 86 -17 9 -35 22 -41 30 -6 7 -37 15 -70 18 -51 4 -67 1 -105 -20z
m174 -126 c37 -17 51 -96 21 -121 -9 -7 -24 -20 -33 -29 -9 -9 -31 -19 -49
-22 -69 -13 -120 72 -89 147 15 35 16 36 70 36 30 0 66 -5 80 -11z"/>
<path d="M11644 14735 c-66 -31 -120 -88 -129 -132 -3 -19 -3 -65 1 -104 6
-66 9 -72 55 -119 39 -40 56 -50 82 -50 18 0 43 -7 55 -16 20 -14 25 -14 45
-1 12 8 37 18 55 21 17 4 38 15 44 25 7 10 21 20 31 24 14 5 20 24 16 53 0 4
5 10 11 14 7 4 14 26 15 49 1 22 -2 38 -6 35 -5 -3 -9 10 -9 29 0 60 -12 99
-32 104 -10 3 -18 9 -18 13 0 5 -13 22 -30 38 -44 44 -117 51 -186 17z m174
-151 c12 -20 22 -44 22 -54 0 -10 -10 -34 -22 -53 -25 -39 -69 -54 -110 -38
-30 11 -42 27 -57 73 -10 32 -10 41 6 65 25 39 32 43 88 42 46 0 52 -3 73 -35z"/>
<path d="M12191 14740 c-13 -11 -29 -20 -35 -20 -14 0 -49 -37 -85 -89 -19
-27 -24 -47 -24 -90 2 -110 68 -190 187 -224 57 -16 60 -16 84 3 13 11 31 20
39 20 16 0 73 53 73 68 0 6 5 12 11 14 7 2 11 39 11 105 0 81 -3 105 -16 118
-9 9 -16 25 -16 35 0 11 -12 22 -31 29 -18 6 -37 18 -43 26 -6 8 -36 17 -71
20 -51 5 -64 2 -84 -15z m137 -126 c37 -7 46 -28 43 -99 -2 -62 -17 -78 -76
-79 -41 -1 -50 3 -76 32 -38 42 -39 92 -4 127 25 26 55 30 113 19z"/>
<path d="M11920 14580 c0 -19 3 -21 12 -12 9 9 9 15 0 24 -9 9 -12 7 -12 -12z"/>
<path d="M13638 14589 c-17 -14 -21 -28 -19 -66 2 -36 53 -46 173 -33 74 8
107 16 116 27 15 21 15 23 -6 51 -16 20 -28 23 -132 28 -89 5 -119 3 -132 -7z"/>
<path d="M14089 14573 c-14 -36 2 -76 35 -88 26 -9 240 15 253 29 3 3 2 20 -3
38 -9 29 -15 34 -54 40 -25 3 -84 7 -133 7 -86 1 -88 0 -98 -26z"/>
<path d="M13636 14371 c-61 -64 -9 -111 123 -111 44 0 81 4 81 9 0 5 14 11 30
15 29 5 35 17 32 59 -4 35 -25 44 -133 50 -106 6 -106 6 -133 -22z"/>
<path d="M14111 14374 c-39 -32 -39 -53 -2 -88 28 -26 32 -27 107 -23 92 6
146 16 139 27 -3 4 4 10 14 13 24 6 18 45 -8 55 -9 3 -20 11 -26 18 -6 6 -50
14 -102 18 -88 5 -93 5 -122 -20z"/>
<path d="M14480 13990 c0 -5 18 -10 40 -10 22 0 40 5 40 10 0 6 -18 10 -40 10
-22 0 -40 -4 -40 -10z"/>
<path d="M14720 13980 c0 -19 3 -21 12 -12 9 9 9 15 0 24 -9 9 -12 7 -12 -12z"/>
<path d="M10317 11183 c-4 -3 -7 -693 -7 -1533 0 -1311 -2 -1529 -14 -1546
-14 -18 -17 -17 -65 36 -28 30 -51 57 -51 62 0 7 -17 27 -89 103 -20 22 -48
56 -61 75 -31 44 -40 55 -91 110 -23 24 -70 80 -106 125 -98 122 -136 167
-160 189 -13 11 -23 23 -23 28 0 4 -8 17 -17 29 -17 21 -32 38 -139 160 -27
31 -67 79 -89 108 -22 29 -49 63 -60 75 -82 93 -154 178 -216 256 -28 36 -54
67 -59 70 -7 5 -88 105 -124 154 -10 14 -37 46 -60 70 -83 90 -141 158 -152
178 -6 12 -30 42 -52 67 -77 85 -132 151 -149 178 -10 15 -30 39 -46 54 -15
15 -40 42 -55 62 -54 70 -113 143 -157 192 -63 71 -155 183 -155 188 0 3 -20
26 -45 53 -25 26 -45 50 -45 53 0 4 -25 33 -55 66 -30 33 -55 63 -55 67 0 4
-19 27 -42 51 -55 57 -146 171 -154 191 -3 9 -10 16 -15 16 -5 0 -9 -910 -9
-2185 l0 -2185 33 0 c17 0 38 4 44 8 10 6 13 326 15 1521 3 1724 -5 1580 88
1478 28 -31 62 -71 74 -89 12 -18 55 -67 95 -108 39 -41 79 -88 88 -105 8 -16
23 -37 32 -46 9 -9 41 -44 71 -79 30 -35 62 -70 70 -79 8 -9 27 -32 41 -51 15
-19 37 -47 50 -61 13 -14 52 -60 87 -102 34 -42 66 -77 71 -77 6 0 12 -8 16
-19 3 -10 16 -30 28 -44 12 -14 38 -44 57 -68 19 -24 56 -66 83 -93 26 -28 47
-56 47 -63 0 -7 4 -13 8 -13 5 0 21 -18 38 -41 16 -22 53 -66 82 -97 29 -32
71 -81 93 -110 22 -29 59 -74 82 -99 80 -88 87 -96 87 -104 0 -5 10 -19 23
-31 26 -27 85 -94 142 -162 22 -26 50 -60 63 -74 50 -58 59 -69 97 -117 21
-27 56 -68 77 -90 21 -22 68 -78 105 -125 37 -47 82 -99 99 -116 17 -18 47
-53 65 -80 43 -59 82 -106 137 -161 23 -24 42 -47 42 -51 0 -5 11 -19 25 -32
14 -13 25 -27 25 -32 0 -4 17 -25 38 -47 69 -71 112 -121 112 -128 0 -5 27
-37 60 -72 33 -36 60 -71 60 -78 0 -7 7 -13 15 -13 13 0 15 248 15 2170 l0
2170 -28 0 c-16 0 -32 -3 -35 -7z m-2455 -350 c14 -16 29 -35 34 -44 12 -23
68 -90 137 -164 32 -34 71 -83 88 -109 17 -25 35 -46 40 -46 5 0 12 -7 16 -15
3 -9 30 -41 59 -73 29 -31 54 -60 54 -63 0 -10 91 -120 149 -179 29 -30 59
-67 67 -82 8 -15 19 -28 24 -28 6 0 10 -5 10 -10 0 -6 19 -31 43 -55 49 -51
51 -53 141 -166 38 -46 76 -91 85 -101 14 -14 48 -53 111 -129 8 -9 26 -32 40
-50 14 -17 33 -40 43 -50 9 -11 17 -23 17 -27 0 -5 10 -18 23 -29 36 -34 93
-97 103 -115 5 -9 32 -42 59 -74 113 -131 141 -164 160 -189 40 -53 61 -78
115 -137 30 -33 59 -67 64 -76 5 -10 16 -24 25 -33 9 -9 34 -38 56 -65 22 -26
58 -69 80 -94 22 -25 49 -59 60 -74 30 -42 64 -82 128 -149 31 -33 57 -65 57
-70 0 -6 7 -17 15 -26 8 -9 36 -39 62 -67 57 -61 114 -130 127 -152 5 -9 26
-34 47 -57 59 -62 69 -74 69 -83 0 -5 9 -17 20 -27 20 -18 20 -29 18 -409 -3
-344 -5 -391 -19 -394 -14 -2 -92 66 -129 114 -74 95 -115 144 -142 174 -50
54 -168 198 -168 205 0 3 -28 35 -63 70 -34 35 -80 89 -102 122 -22 32 -67 85
-100 118 -33 34 -85 94 -115 134 -30 40 -76 95 -102 122 -27 27 -48 53 -48 57
0 5 -22 33 -50 63 -27 30 -50 57 -50 61 0 4 -23 31 -51 60 -56 58 -159 183
-159 193 0 4 -17 23 -38 43 -20 20 -55 60 -77 87 -22 28 -51 62 -65 76 -14 15
-34 39 -45 54 -11 15 -36 46 -56 68 -20 23 -64 74 -98 112 -33 39 -61 75 -61
81 0 6 -10 19 -22 30 -13 11 -41 42 -63 68 -98 118 -129 155 -180 211 -29 33
-71 83 -91 110 -21 28 -40 52 -43 55 -3 3 -25 28 -47 55 -48 58 -79 94 -151
173 -29 31 -53 61 -53 67 0 5 -16 25 -35 44 -19 18 -48 54 -65 79 l-30 45 0
388 c0 394 0 396 36 398 5 1 22 -11 36 -26z"/>
<path d="M11593 11183 c-10 -4 -13 -451 -13 -2188 l0 -2184 34 -7 c19 -3 39
-3 45 1 8 4 11 280 11 906 l0 900 33 13 c26 11 231 14 1053 15 934 2 1023 1
1038 -14 15 -15 16 -96 16 -910 0 -873 0 -895 19 -905 11 -5 27 -7 35 -4 15 6
16 212 16 2179 0 1195 -3 2180 -6 2189 -7 19 -35 21 -52 4 -9 -9 -12 -223 -12
-903 l0 -892 -25 -11 c-19 -9 -298 -12 -1064 -12 -938 0 -1039 2 -1045 16 -3
9 -6 413 -6 899 0 486 -3 890 -6 899 -6 15 -44 20 -71 9z m2187 -1922 l25 -7
3 -246 2 -246 -27 -21 -26 -22 -1034 3 c-906 3 -1035 5 -1043 18 -6 9 -9 118
-7 265 l2 250 40 6 c56 9 2034 9 2065 0z"/>
<path d="M17432 11172 c-10 -7 -12 -450 -10 -2183 l3 -2174 690 2 c1639 5
1861 6 1873 11 6 2 12 10 12 18 0 12 -98 14 -622 15 -935 2 -1259 6 -1269 16
-5 5 -10 933 -11 2153 l-3 2145 -325 3 c-179 1 -331 -1 -338 -6z m603 -62 c9
-14 6 -4213 -3 -4222 -18 -18 -108 -23 -311 -18 l-215 5 -8 32 c-5 17 -7 968
-6 2113 3 1837 5 2082 18 2090 20 13 517 13 525 0z"/>
<path d="M21267 11153 c3 -7 11 -13 18 -13 7 0 28 -3 46 -6 26 -4 30 -3 19 5
-10 7 -11 11 -2 11 6 0 12 5 12 10 0 6 -22 9 -49 8 -35 -2 -47 -6 -44 -15z"/>
<path d="M21905 11160 c3 -5 8 -10 11 -10 2 0 4 5 4 10 0 6 -5 10 -11 10 -5 0
-7 -4 -4 -10z"/>
<path d="M4274 11128 c-8 -18 -19 -40 -24 -48 -5 -8 -23 -44 -40 -80 -17 -36
-35 -72 -40 -80 -5 -8 -23 -44 -40 -80 -17 -36 -35 -72 -39 -80 -49 -94 -61
-120 -61 -133 0 -8 -6 -20 -14 -26 -8 -7 -26 -38 -41 -69 -15 -31 -31 -64 -36
-72 -5 -8 -22 -44 -39 -80 -17 -36 -35 -72 -41 -80 -5 -8 -14 -26 -20 -40 -23
-56 -113 -231 -121 -236 -4 -3 -8 -13 -8 -23 0 -10 -6 -24 -14 -30 -8 -7 -17
-24 -21 -38 -3 -15 -15 -39 -26 -54 -10 -15 -19 -36 -19 -46 0 -11 -11 -34
-25 -53 -14 -19 -25 -42 -25 -52 0 -10 -4 -18 -10 -18 -5 0 -15 -18 -21 -40
-7 -22 -16 -40 -20 -40 -5 0 -14 -18 -20 -40 -7 -22 -16 -40 -20 -40 -4 0 -13
-17 -19 -37 -7 -21 -18 -45 -25 -53 -7 -8 -16 -26 -20 -40 -4 -14 -13 -32 -20
-40 -7 -8 -16 -26 -20 -40 -4 -14 -16 -36 -26 -49 -11 -13 -19 -32 -19 -41 0
-10 -6 -23 -14 -29 -8 -7 -18 -25 -21 -41 -3 -16 -12 -34 -20 -40 -8 -6 -17
-24 -20 -40 -3 -16 -12 -34 -20 -40 -7 -6 -16 -23 -20 -37 -3 -15 -15 -38 -26
-51 -10 -14 -19 -31 -19 -39 0 -8 -9 -26 -20 -40 -11 -14 -20 -32 -20 -40 0
-8 -9 -26 -20 -40 -11 -14 -20 -32 -20 -40 0 -8 -9 -26 -20 -40 -11 -14 -20
-32 -20 -40 0 -8 -9 -26 -20 -40 -11 -14 -20 -32 -20 -40 0 -8 -9 -26 -20 -40
-11 -14 -20 -32 -20 -40 0 -8 -9 -26 -20 -40 -11 -14 -20 -32 -20 -40 0 -8 -9
-26 -20 -40 -11 -14 -20 -32 -20 -40 0 -8 -9 -26 -20 -40 -11 -14 -20 -32 -20
-40 0 -8 -9 -26 -20 -40 -11 -14 -20 -32 -20 -40 0 -8 -9 -26 -20 -40 -11 -14
-20 -32 -20 -40 0 -8 -9 -26 -20 -40 -11 -14 -20 -32 -20 -40 0 -8 -9 -26 -20
-40 -11 -14 -20 -34 -20 -44 0 -10 -4 -20 -9 -24 -11 -6 -71 -123 -71 -138 0
-5 -9 -20 -20 -34 -11 -14 -20 -32 -20 -40 0 -8 -9 -26 -20 -40 -11 -14 -20
-32 -20 -40 0 -8 -9 -26 -20 -40 -11 -14 -20 -32 -20 -40 0 -8 -9 -26 -20 -40
-11 -14 -20 -32 -20 -40 0 -8 -9 -26 -20 -40 -11 -14 -20 -33 -20 -43 0 -9 -9
-25 -20 -35 -11 -10 -20 -26 -20 -35 0 -10 -9 -29 -20 -43 -11 -14 -20 -32
-20 -40 0 -8 -9 -26 -20 -40 -11 -14 -20 -32 -20 -40 0 -8 -9 -26 -20 -40 -11
-14 -20 -30 -20 -36 0 -5 -18 -44 -40 -86 -22 -42 -40 -80 -40 -86 0 -5 -9
-23 -21 -38 -11 -16 -21 -44 -22 -62 -2 -29 2 -35 21 -37 55 -8 74 13 145 161
38 78 73 149 78 157 26 45 239 480 239 488 0 6 4 12 8 14 7 3 46 78 71 138 6
14 15 32 21 40 5 8 14 26 20 40 5 14 14 32 18 40 38 67 262 515 262 523 0 10
50 81 63 89 7 4 370 8 808 8 707 0 798 -2 809 -15 12 -15 198 -376 270 -525
18 -36 36 -72 41 -80 5 -8 14 -26 20 -40 6 -14 15 -32 20 -40 5 -8 14 -26 20
-40 6 -14 15 -32 20 -40 5 -8 14 -26 20 -40 6 -14 15 -32 20 -40 5 -8 14 -26
20 -40 6 -14 15 -32 20 -40 4 -8 31 -62 59 -120 29 -58 56 -112 60 -120 5 -8
41 -80 80 -160 40 -80 76 -153 81 -162 5 -10 14 -27 19 -38 6 -11 15 -30 22
-42 6 -13 18 -36 26 -53 34 -70 -4 -65 504 -65 395 0 459 2 464 15 3 8 -168
363 -390 807 -218 436 -396 799 -396 806 0 6 -4 12 -8 12 -9 0 -72 130 -72
148 0 6 -4 12 -8 14 -11 4 -72 125 -72 142 0 8 -4 16 -8 18 -11 4 -72 125 -72
142 0 8 -4 16 -8 18 -12 4 -72 125 -72 143 0 8 -4 15 -9 15 -5 0 -15 17 -22
37 -6 21 -18 44 -25 51 -8 7 -17 25 -21 40 -3 15 -14 38 -25 51 -10 13 -18 32
-18 42 0 11 -4 19 -9 19 -5 0 -15 17 -22 38 -6 20 -15 39 -19 42 -3 3 -57 109
-119 235 -62 127 -117 237 -122 245 -5 8 -14 26 -20 40 -6 14 -15 32 -20 40
-5 8 -14 26 -20 40 -6 14 -15 33 -20 43 -24 46 -33 63 -41 77 -4 8 -13 26 -19
40 -6 14 -15 32 -20 40 -4 8 -94 188 -199 400 -105 212 -196 392 -201 400 -5
8 -26 50 -46 92 -43 88 -65 99 -89 46z m97 -286 c20 -40 41 -78 47 -85 6 -7
14 -26 18 -42 4 -17 15 -41 26 -54 10 -13 18 -29 18 -36 0 -7 6 -18 14 -24 8
-7 18 -27 22 -44 3 -18 15 -43 25 -56 11 -13 19 -32 19 -41 0 -10 6 -20 14
-23 8 -3 17 -19 21 -36 3 -16 12 -35 20 -41 8 -6 17 -26 21 -43 3 -18 15 -43
25 -56 11 -13 19 -30 19 -38 0 -8 9 -26 20 -40 11 -14 20 -34 20 -44 0 -10 4
-20 10 -24 5 -3 24 -36 42 -73 17 -37 40 -78 50 -91 10 -13 18 -31 18 -41 0
-10 9 -29 20 -43 11 -14 20 -34 20 -45 0 -10 9 -27 20 -37 11 -10 20 -26 20
-35 0 -10 9 -29 20 -43 11 -14 20 -34 20 -45 0 -12 5 -24 11 -28 6 -3 19 -25
29 -49 10 -24 23 -46 29 -49 6 -4 11 -18 11 -31 0 -13 5 -27 11 -31 6 -3 19
-25 29 -49 10 -24 23 -46 29 -49 6 -4 11 -16 11 -28 0 -11 9 -31 20 -45 11
-14 20 -33 20 -43 0 -9 9 -25 20 -35 11 -10 20 -26 20 -35 0 -10 9 -29 20 -43
11 -14 20 -32 20 -40 0 -8 9 -26 20 -40 11 -14 20 -32 20 -40 0 -8 9 -26 20
-40 11 -14 20 -32 20 -40 0 -8 9 -26 20 -40 11 -14 20 -32 20 -40 0 -8 9 -26
20 -40 11 -14 20 -32 20 -40 0 -8 9 -26 20 -40 11 -14 20 -32 20 -40 0 -8 9
-26 20 -40 11 -14 20 -32 20 -40 0 -8 9 -26 20 -40 11 -14 20 -32 20 -40 0 -8
9 -26 20 -40 11 -14 20 -32 20 -40 0 -8 9 -25 19 -39 11 -13 23 -36 26 -51 4
-14 13 -31 21 -38 8 -6 14 -19 14 -29 0 -9 9 -28 19 -42 11 -13 23 -36 26 -51
4 -14 13 -31 21 -38 8 -6 14 -19 14 -29 0 -9 9 -29 20 -43 11 -14 20 -32 20
-40 0 -8 9 -26 20 -40 11 -14 20 -32 20 -40 0 -8 9 -26 20 -40 11 -14 20 -32
20 -40 0 -8 9 -26 20 -40 11 -14 20 -32 20 -40 0 -8 9 -26 20 -40 11 -14 20
-32 20 -40 0 -8 9 -26 20 -40 11 -14 20 -32 20 -40 0 -8 8 -25 19 -38 10 -13
22 -35 26 -49 4 -14 16 -36 26 -49 11 -13 19 -32 19 -41 0 -10 6 -23 14 -29 8
-7 18 -25 21 -41 3 -16 12 -34 20 -40 8 -6 17 -24 20 -40 3 -16 12 -34 20 -40
8 -6 17 -24 20 -40 3 -16 12 -34 20 -40 8 -6 17 -24 20 -40 3 -16 12 -34 20
-40 8 -6 17 -24 20 -40 3 -16 12 -34 20 -40 8 -6 17 -25 20 -41 4 -16 11 -32
16 -35 17 -10 30 -57 24 -81 l-5 -23 -343 0 c-343 0 -344 0 -365 23 -11 12
-25 33 -31 47 -6 14 -15 32 -20 40 -10 16 -29 53 -54 106 -8 17 -20 35 -26 38
-6 4 -11 16 -11 26 0 10 -6 25 -13 32 -8 7 -19 30 -26 50 -7 20 -19 42 -27 48
-7 7 -14 18 -14 24 0 10 -168 349 -191 386 -5 8 -13 26 -19 40 -5 14 -14 32
-20 40 -5 8 -14 26 -20 40 -5 14 -14 32 -20 40 -5 8 -14 26 -20 40 -5 14 -14
32 -19 40 -5 8 -14 26 -20 40 -6 14 -15 32 -21 40 -5 8 -14 26 -20 40 -5 14
-14 32 -19 40 -5 8 -14 26 -20 40 -6 14 -15 32 -21 40 -5 8 -14 26 -20 40 -5
14 -14 32 -19 40 -5 8 -23 44 -41 80 -17 36 -35 72 -40 80 -4 8 -13 26 -19 40
-6 14 -15 32 -21 40 -5 8 -14 26 -20 40 -5 14 -14 32 -20 40 -5 8 -14 26 -20
40 -5 14 -14 32 -20 40 -5 8 -14 26 -20 40 -5 14 -14 32 -20 40 -5 8 -23 44
-40 80 -17 36 -35 72 -40 80 -5 8 -23 44 -40 80 -17 36 -35 72 -40 80 -4 8
-21 42 -36 75 -15 33 -33 67 -40 75 -6 8 -17 32 -24 53 -6 20 -15 37 -20 37
-4 0 -11 12 -15 28 -3 15 -12 34 -20 42 -7 8 -18 32 -25 53 -6 20 -15 37 -19
37 -4 0 -13 18 -20 40 -6 22 -16 40 -21 40 -6 0 -10 6 -10 12 0 20 -263 542
-277 551 -7 4 -13 17 -13 28 0 12 -9 32 -20 46 -11 14 -20 35 -20 45 0 11 9
31 20 45 11 14 20 33 20 43 0 10 8 28 18 41 10 13 67 123 126 244 60 121 120
244 135 273 22 44 30 52 50 50 20 -2 33 -18 62 -76z m-458 -794 c9 -18 21 -40
26 -48 5 -8 22 -42 37 -75 16 -33 34 -66 41 -73 7 -7 13 -22 13 -31 0 -10 9
-29 19 -43 11 -13 23 -36 26 -51 4 -14 13 -31 21 -38 8 -6 14 -19 14 -29 0 -9
9 -29 20 -43 11 -14 20 -32 20 -40 0 -8 9 -26 20 -40 11 -14 20 -32 20 -40 0
-8 9 -25 19 -39 11 -13 23 -36 26 -51 4 -14 13 -31 21 -38 8 -6 14 -17 14 -24
0 -7 15 -42 34 -77 78 -144 321 -633 322 -647 1 -42 12 -41 -747 -41 l-729 0
-6 27 c-4 15 -2 33 5 42 6 9 16 27 21 41 6 14 14 32 20 40 5 8 23 44 41 80 17
36 35 72 40 80 4 8 22 44 40 80 17 36 35 72 40 80 5 8 14 26 20 40 6 14 15 32
20 40 5 8 14 26 20 40 6 14 15 32 20 40 5 8 14 26 20 40 6 14 15 32 20 40 5 8
14 26 20 40 6 14 15 32 20 40 5 8 14 26 19 40 6 14 15 32 20 40 6 8 15 26 21
40 6 14 15 32 20 40 29 53 189 377 189 383 0 5 9 20 20 34 11 14 20 32 20 39
0 19 52 93 66 94 6 0 18 -15 27 -32z"/>
<path d="M21906 11025 c-3 -8 -1 -15 4 -15 6 0 10 7 10 15 0 8 -2 15 -4 15 -2
0 -6 -7 -10 -15z"/>
<path d="M21920 9069 c0 -5 5 -7 10 -4 6 3 10 8 10 11 0 2 -4 4 -10 4 -5 0
-10 -5 -10 -11z"/>
<path d="M21288 6853 c7 -3 16 -2 19 1 4 3 -2 6 -13 5 -11 0 -14 -3 -6 -6z"/>
<path d="M21378 6853 c12 -2 32 -2 45 0 12 2 2 4 -23 4 -25 0 -35 -2 -22 -4z"/>
<path d="M21818 6853 c7 -3 16 -2 19 1 4 3 -2 6 -13 5 -11 0 -14 -3 -6 -6z"/>
<path d="M21920 6848 c0 -4 19 -8 42 -8 23 0 38 3 35 7 -10 9 -77 10 -77 1z"/>
<path d="M9575 5360 c-27 -11 -63 -19 -78 -20 -15 0 -30 -7 -33 -15 -3 -8 -15
-17 -25 -20 -11 -4 -37 -18 -59 -33 -44 -28 -46 -47 -7 -89 25 -28 44 -29 71
-4 31 28 97 61 123 61 12 0 33 4 48 10 40 15 143 -14 183 -51 31 -29 38 -53
34 -117 -2 -45 -53 -126 -100 -162 -26 -19 -53 -41 -60 -47 -7 -7 -19 -13 -26
-13 -7 0 -21 -9 -31 -20 -10 -11 -26 -20 -35 -20 -9 0 -25 -9 -35 -20 -10 -11
-24 -20 -32 -20 -7 0 -30 -15 -50 -34 -21 -18 -48 -38 -60 -45 -13 -6 -23 -18
-23 -25 0 -8 -6 -16 -14 -19 -8 -3 -17 -19 -21 -35 -3 -17 -13 -33 -21 -36
-12 -4 -14 -21 -12 -78 l3 -73 290 -3 c160 -1 305 0 323 3 30 6 32 8 32 49 0
31 -5 46 -16 50 -9 3 -118 6 -244 6 -280 0 -287 3 -198 100 13 15 48 39 78 54
30 16 62 34 71 42 8 8 19 14 24 14 4 0 22 10 39 23 17 13 39 26 49 30 9 3 17
11 17 17 0 5 5 10 10 10 18 0 99 91 120 134 26 55 35 158 20 229 -6 31 -15 57
-20 57 -5 0 -11 8 -15 18 -7 25 -96 82 -126 82 -13 0 -46 7 -73 15 -59 18 -58
18 -121 -5z"/>
<path d="M10550 5373 c-8 -2 -24 -8 -35 -13 -11 -5 -42 -11 -69 -14 -31 -4
-57 -14 -68 -26 -10 -11 -22 -20 -27 -20 -23 0 -121 -122 -121 -151 0 -8 -7
-24 -15 -36 -22 -32 -38 -217 -30 -352 8 -136 17 -162 82 -231 18 -19 33 -38
33 -42 0 -3 12 -11 28 -17 15 -7 38 -18 52 -27 20 -12 54 -14 160 -12 126 3
137 5 169 28 56 41 108 95 116 121 4 13 14 32 22 41 12 14 15 38 11 116 -3 94
-5 101 -37 143 -44 57 -74 83 -136 116 -46 25 -58 27 -161 27 -94 -1 -115 -4
-133 -20 -11 -10 -30 -27 -41 -36 -11 -10 -24 -18 -29 -18 -24 0 -29 94 -7
125 7 11 17 30 20 43 16 50 110 117 179 127 26 3 47 10 47 15 0 6 9 6 23 1 12
-5 55 -14 94 -21 40 -6 76 -12 79 -13 4 -1 16 13 26 31 15 27 16 36 6 52 -16
25 -30 30 -93 37 -27 3 -65 12 -84 19 -36 15 -38 15 -61 7z m84 -463 c41 -15
104 -85 115 -128 14 -50 4 -126 -20 -155 -63 -75 -79 -85 -150 -92 -96 -10
-167 2 -194 31 -12 13 -27 24 -33 24 -7 0 -14 11 -18 25 -3 13 -12 29 -20 36
-9 8 -14 33 -14 76 0 64 0 65 52 119 28 30 65 58 82 63 42 12 169 13 200 1z"/>
<path d="M4611 5352 c-7 -12 -7 -22 0 -29 5 -5 13 -23 18 -40 8 -27 3 -44 -31
-115 -22 -46 -51 -108 -64 -138 -14 -30 -30 -62 -35 -70 -5 -8 -14 -26 -19
-40 -6 -14 -15 -32 -20 -40 -6 -8 -15 -26 -20 -40 -6 -14 -14 -32 -19 -40 -6
-8 -31 -58 -56 -110 -26 -52 -57 -117 -71 -143 -13 -27 -24 -55 -24 -62 0 -7
-7 -19 -16 -26 -14 -12 -14 -14 3 -20 10 -4 41 -8 68 -8 45 -1 52 2 67 28 24
43 87 79 160 91 35 5 141 10 236 10 159 0 174 -2 192 -20 11 -11 20 -25 20
-30 0 -6 10 -26 23 -45 19 -30 27 -35 64 -35 67 0 74 5 58 48 -7 20 -20 51
-28 67 -9 17 -35 71 -58 120 -23 50 -66 142 -96 205 -31 63 -67 140 -80 170
-14 30 -29 62 -34 70 -5 8 -12 22 -15 30 -5 15 -19 44 -41 85 -6 11 -23 45
-38 77 -27 58 -41 68 -102 68 -21 0 -36 -6 -42 -18z m111 -299 c14 -16 40 -57
58 -93 31 -63 54 -109 71 -140 5 -8 18 -33 29 -55 l21 -40 -22 -17 c-16 -13
-39 -18 -91 -18 -38 0 -77 -4 -86 -9 -9 -4 -54 -11 -100 -15 -69 -5 -83 -4
-88 9 -3 8 12 53 35 99 23 46 41 89 41 96 0 6 9 23 20 37 11 14 20 32 20 39 0
7 9 33 19 56 11 24 22 51 25 61 7 24 18 21 48 -10z"/>
<path d="M12377 5359 c-6 -4 -41 -10 -76 -13 -35 -4 -80 -16 -100 -27 -19 -10
-43 -19 -53 -19 -9 0 -21 -6 -25 -14 -4 -7 -21 -20 -38 -29 -16 -9 -41 -30
-55 -48 -14 -17 -33 -40 -42 -50 -10 -10 -20 -31 -24 -46 -4 -16 -14 -36 -23
-47 -13 -14 -17 -47 -19 -153 -4 -129 6 -193 29 -193 5 0 9 -6 9 -13 0 -43
109 -176 156 -191 12 -4 32 -15 44 -26 13 -11 33 -20 45 -20 13 0 28 -7 35
-15 10 -12 45 -15 199 -15 167 1 188 3 209 19 25 21 28 41 10 59 -17 17 -49
15 -64 -5 -11 -15 -30 -18 -147 -17 -105 0 -140 4 -158 16 -14 8 -39 19 -57
23 -18 4 -36 13 -39 21 -3 8 -10 14 -17 14 -19 0 -146 143 -146 165 0 11 -7
31 -16 44 -10 14 -19 52 -22 91 -6 86 29 191 82 248 20 20 36 40 36 44 0 10
105 78 120 78 7 0 29 10 48 22 32 20 48 22 182 21 160 -1 149 1 298 -78 44
-24 92 -67 92 -84 0 -7 10 -25 22 -41 19 -26 22 -43 22 -135 1 -97 -1 -106
-22 -120 -12 -9 -22 -23 -22 -31 0 -8 -11 -19 -24 -24 -13 -5 -27 -14 -31 -19
-3 -6 -18 -11 -33 -11 -71 0 -95 26 -106 115 -15 115 -28 153 -70 198 -34 37
-49 46 -88 51 -76 11 -159 -2 -192 -31 -15 -13 -25 -27 -22 -30 9 -9 62 -7
121 4 28 5 61 5 75 1 14 -4 37 -10 53 -13 23 -5 27 -10 27 -40 0 -23 -6 -37
-17 -43 -10 -5 -67 -12 -127 -14 -71 -3 -111 -9 -114 -16 -2 -7 -10 -12 -17
-12 -30 0 -45 -31 -44 -88 1 -73 6 -85 52 -116 34 -24 47 -26 136 -26 89 0
100 2 113 21 8 13 24 22 42 22 15 0 41 -10 56 -22 23 -17 43 -21 100 -21 75 0
105 14 157 70 12 14 29 32 37 40 13 14 30 82 43 167 3 19 -2 51 -11 73 -9 22
-16 51 -16 63 0 28 -17 52 -92 129 -31 32 -74 66 -95 74 -21 9 -41 21 -44 26
-12 20 -313 52 -342 37z m220 -485 c9 -23 -28 -83 -67 -110 -28 -19 -48 -24
-99 -24 -57 0 -68 3 -93 27 -30 29 -36 59 -15 87 13 18 34 21 245 35 12 0 25
-6 29 -15z"/>
<path d="M13635 5361 c-6 -6 -37 -13 -70 -17 -33 -4 -68 -13 -77 -22 -10 -8
-29 -16 -43 -17 -29 -4 -91 -40 -120 -70 -29 -31 -72 -97 -80 -122 -3 -13 -10
-23 -15 -23 -5 0 -12 -17 -16 -37 -3 -21 -12 -48 -20 -60 -8 -12 -14 -43 -14
-69 0 -53 36 -212 53 -233 6 -7 16 -21 22 -31 30 -51 66 -100 74 -100 4 0 29
-20 55 -45 30 -28 57 -45 72 -45 14 0 27 -7 30 -15 9 -21 342 -22 350 -1 3 7
22 16 42 20 20 3 45 15 54 26 10 11 24 20 31 20 7 0 28 16 45 36 l32 36 0 148
c0 106 -3 150 -12 157 -7 6 -65 9 -128 9 -98 -1 -115 -3 -118 -18 -4 -19 46
-68 70 -68 21 0 71 -21 80 -35 4 -5 8 -40 8 -77 0 -57 -4 -71 -26 -97 -14 -17
-30 -31 -35 -31 -5 0 -27 -11 -48 -25 -35 -24 -48 -26 -147 -26 -115 -1 -179
7 -203 25 -48 37 -162 161 -167 183 -4 15 -13 38 -20 52 -20 38 -19 190 1 197
8 4 15 18 15 32 0 28 37 87 85 137 52 54 106 83 168 90 31 4 60 11 63 16 8 14
59 11 90 -6 16 -8 48 -15 72 -15 30 0 47 -6 59 -20 10 -11 21 -20 26 -20 4 0
21 -10 38 -22 l30 -22 24 29 c34 42 32 61 -10 75 -19 6 -49 25 -67 42 -26 24
-48 33 -113 44 -44 8 -91 17 -105 20 -14 3 -30 1 -35 -5z"/>
<path d="M5324 5336 c-4 -10 6 -30 30 -56 20 -22 37 -41 38 -43 1 -1 5 -182 8
-402 l5 -400 50 0 50 0 3 296 c2 221 5 299 15 307 16 14 45 -12 132 -118 38
-47 74 -90 80 -96 5 -6 48 -57 95 -114 47 -57 98 -117 113 -134 16 -17 49 -57
74 -88 44 -56 48 -58 94 -58 86 0 79 -42 79 455 0 290 -4 446 -10 450 -20 13
-59 15 -84 5 l-26 -10 0 -330 0 -330 -23 0 c-22 0 -74 46 -93 82 -5 9 -32 40
-60 70 -27 29 -74 85 -103 123 -29 39 -79 98 -110 131 -31 34 -81 92 -111 130
-106 131 -111 135 -179 141 -50 5 -62 3 -67 -11z"/>
<path d="M6496 5338 c-15 -8 -16 -56 -14 -454 3 -443 3 -445 24 -450 12 -3 36
-4 55 -2 l34 3 3 192 2 192 33 23 c43 31 148 36 267 13 83 -16 118 -16 211 0
26 5 39 3 45 -7 5 -7 11 -103 14 -213 l5 -200 50 0 50 0 3 452 c2 424 1 452
-15 456 -16 5 -61 4 -85 -1 -5 -1 -8 -78 -8 -171 0 -94 -4 -172 -9 -175 -5 -3
-44 -13 -86 -21 -59 -11 -89 -12 -124 -4 -25 6 -113 11 -196 12 l-150 2 -3
170 c-1 98 -7 174 -13 180 -13 13 -72 15 -93 3z"/>
<path d="M7582 4888 l3 -453 295 -3 c162 -1 305 0 318 3 19 5 22 12 22 49 0
31 -5 46 -16 50 -9 3 -113 6 -232 6 -119 0 -227 3 -239 6 -15 4 -26 18 -33 43
-6 21 -10 184 -10 394 l0 357 -55 0 -55 0 2 -452z"/>
<path d="M8417 5333 c-4 -3 -7 -205 -7 -449 0 -394 2 -443 16 -448 9 -3 158
-6 333 -6 233 0 320 3 329 12 18 18 15 85 -4 92 -9 3 -131 6 -273 6 -187 0
-260 3 -269 12 -8 8 -12 51 -12 129 0 94 3 121 16 133 19 19 4 17 194 25 l155
6 3 43 c5 72 -4 76 -143 68 -66 -4 -139 -11 -162 -15 -30 -6 -46 -5 -53 4 -7
8 -10 64 -8 146 l3 134 255 10 255 10 0 45 0 45 -311 3 c-171 1 -313 -1 -317
-5z"/>
<path d="M11077 5333 c-4 -3 -7 -26 -7 -50 l0 -43 229 0 c126 0 241 -4 254 -9
23 -9 24 -12 13 -43 -11 -31 -118 -255 -137 -288 -5 -8 -15 -26 -21 -40 -7
-14 -20 -33 -30 -43 -10 -10 -18 -27 -18 -37 0 -11 -9 -29 -20 -40 -11 -11
-20 -31 -20 -43 0 -13 -9 -32 -20 -42 -11 -10 -20 -23 -20 -30 0 -7 -9 -22
-20 -35 -11 -13 -20 -33 -20 -45 0 -13 -7 -28 -15 -35 -8 -7 -21 -25 -29 -41
-14 -28 -13 -29 10 -35 35 -9 93 2 114 21 10 9 20 29 23 44 3 16 12 35 20 43
8 8 18 25 22 38 4 14 13 32 20 40 7 8 16 26 20 40 4 14 16 36 26 49 11 13 19
32 19 41 0 10 6 23 14 29 8 7 17 24 21 38 3 15 15 38 26 51 10 14 19 33 19 42
0 10 6 23 14 29 8 7 18 26 21 42 4 17 13 33 21 36 8 3 14 11 14 17 0 7 20 52
45 101 41 79 46 96 43 145 l-3 55 -311 3 c-171 1 -313 -1 -317 -5z"/>
<path d="M14265 5330 c-4 -7 3 -23 17 -38 61 -66 58 -42 58 -464 l0 -388 45 0
45 0 0 293 c0 276 2 293 20 317 l20 25 20 -25 c11 -14 27 -32 35 -41 8 -9 15
-21 15 -27 0 -6 9 -16 20 -22 11 -6 20 -15 20 -21 0 -6 20 -30 44 -53 24 -24
56 -62 71 -85 15 -22 32 -41 36 -41 5 0 9 -6 9 -14 0 -26 19 -27 42 -4 13 13
23 26 23 30 0 4 28 34 63 67 34 33 62 65 62 70 0 6 6 14 13 18 6 4 18 17 25
28 36 58 51 76 75 96 34 26 52 20 61 -21 3 -18 6 -158 6 -311 l0 -279 45 0 45
0 0 394 0 393 26 39 c14 21 32 44 40 50 11 9 2 12 -42 17 -62 6 -84 1 -84 -19
0 -8 -7 -14 -15 -14 -8 0 -15 -8 -15 -18 0 -11 -27 -48 -60 -83 -33 -35 -60
-70 -60 -77 0 -7 -11 -18 -25 -24 -14 -6 -25 -17 -25 -25 0 -7 -7 -13 -15 -13
-8 0 -15 -6 -15 -13 0 -24 -89 -121 -129 -142 -32 -16 -61 -11 -61 11 0 8 -6
14 -12 14 -14 0 -68 71 -68 89 0 6 -4 11 -9 11 -4 0 -29 26 -54 58 -25 31 -64
75 -86 97 -22 22 -41 45 -41 50 0 6 -19 30 -41 54 -35 38 -47 45 -88 49 -31 3
-51 0 -56 -8z"/>
<path d="M15820 5331 c0 -6 5 -13 10 -16 18 -11 11 -61 -15 -109 -14 -26 -25
-55 -25 -65 0 -10 -6 -24 -14 -30 -8 -7 -18 -25 -21 -41 -3 -16 -13 -34 -21
-40 -7 -7 -19 -30 -24 -51 -6 -22 -15 -39 -20 -39 -4 0 -11 -13 -15 -29 -3
-16 -15 -37 -26 -47 -10 -9 -19 -30 -19 -45 0 -18 -7 -32 -20 -39 -12 -6 -20
-21 -20 -36 0 -14 -9 -37 -20 -51 -11 -14 -20 -36 -20 -50 0 -13 -7 -26 -15
-29 -8 -3 -19 -23 -25 -44 -6 -21 -17 -43 -25 -50 -8 -7 -15 -19 -15 -28 0 -8
-7 -24 -17 -34 -15 -17 -14 -18 39 -18 53 0 56 1 82 40 14 22 32 40 40 40 7 0
20 8 30 19 12 14 37 19 101 24 46 3 93 11 104 16 11 6 82 11 165 11 144 0 145
0 165 -26 12 -15 21 -35 21 -45 0 -11 9 -28 20 -39 11 -11 20 -24 20 -30 0 -5
21 -10 46 -10 42 0 45 2 38 22 -3 12 -13 28 -20 36 -8 7 -14 20 -14 27 0 7 -6
20 -13 27 -8 7 -19 30 -26 50 -7 20 -19 42 -27 48 -7 7 -14 19 -14 26 0 8 -15
45 -34 82 -57 112 -86 180 -86 201 0 11 -5 23 -10 26 -10 6 -70 128 -70 142 0
5 -8 16 -19 25 -10 8 -21 32 -25 52 -4 21 -16 46 -27 57 -10 10 -19 30 -19 43
0 18 -7 25 -31 30 -45 9 -69 7 -69 -3z m98 -256 c17 -14 33 -39 37 -55 4 -17
10 -30 15 -30 5 0 14 -17 21 -37 6 -21 20 -49 30 -62 11 -13 19 -32 19 -41 0
-10 7 -20 14 -23 8 -3 18 -22 21 -41 4 -19 13 -37 21 -40 19 -7 18 -56 -1 -56
-8 0 -15 -7 -15 -15 0 -13 -21 -15 -127 -15 -122 0 -215 -10 -257 -26 -18 -7
-19 -4 -12 52 4 34 13 62 21 67 8 4 17 24 21 45 4 20 12 44 19 52 7 8 15 28
19 44 4 16 16 41 27 54 10 14 19 33 19 43 0 19 59 109 71 109 4 0 21 -11 37
-25z"/>
<path d="M18353 5332 c-27 -3 -33 -7 -33 -28 0 -13 -4 -24 -10 -24 -5 0 -10 5
-10 10 0 16 -53 -1 -68 -22 -8 -10 -19 -17 -26 -16 -21 5 -76 -58 -76 -86 0
-16 -6 -26 -15 -26 -15 0 -38 -34 -29 -43 3 -3 -3 -4 -13 -3 -15 1 -19 -10
-25 -66 -4 -41 -13 -74 -22 -84 -24 -23 -19 -123 5 -109 10 7 23 -40 15 -54
-4 -5 -1 -22 6 -38 17 -38 18 -39 28 -23 7 11 10 3 10 -27 0 -36 4 -44 30 -56
21 -11 30 -12 34 -3 2 6 5 3 5 -6 1 -10 -6 -18 -14 -18 -8 0 -15 -3 -15 -7 0
-15 65 -63 79 -58 9 3 11 0 7 -10 -3 -9 0 -15 9 -15 8 0 19 -9 25 -20 7 -14
21 -20 44 -20 25 0 35 -5 39 -19 4 -18 16 -19 156 -20 145 -1 151 -1 151 19 0
17 6 20 46 20 37 0 47 4 51 20 3 11 14 20 24 20 11 0 19 7 19 15 0 9 7 18 15
21 19 8 19 19 2 36 -8 7 -16 19 -18 25 -3 8 -10 7 -24 -3 -19 -15 -19 -16 -2
-29 15 -11 16 -17 7 -34 -12 -24 -30 -28 -30 -7 0 21 -21 31 -31 15 -13 -20
-11 -29 6 -29 8 0 15 -7 15 -15 0 -8 -4 -15 -9 -15 -5 0 -25 7 -44 15 -20 8
-52 15 -72 15 -30 0 -35 -3 -35 -23 0 -22 -4 -24 -47 -22 -74 3 -123 16 -123
31 0 10 -14 14 -49 14 -28 0 -53 5 -56 10 -3 6 -15 10 -26 10 -14 0 -21 9 -25
29 -4 20 -14 31 -30 35 -13 4 -24 13 -24 21 0 8 -6 18 -13 22 -16 10 -37 58
-37 85 0 11 -7 26 -16 33 -14 10 -16 30 -15 118 2 86 -1 110 -13 123 -9 8 -16
21 -16 27 0 7 4 6 10 -3 8 -12 11 -13 19 -1 6 9 11 10 15 2 13 -20 24 -2 31
50 5 36 10 47 16 38 7 -11 10 -9 15 8 3 12 15 25 25 28 10 4 19 12 19 20 0 7
10 16 23 19 12 3 33 15 47 26 l25 20 -40 1 -40 1 40 11 c28 7 40 7 43 -2 2 -6
21 -11 43 -11 32 0 39 3 39 20 0 18 7 20 70 20 40 0 70 4 70 10 0 6 5 10 10
10 6 0 10 -13 10 -30 0 -30 0 -30 57 -30 43 0 62 -5 78 -20 22 -21 82 -34 90
-20 7 11 -5 40 -17 40 -5 0 -27 9 -49 19 -22 11 -47 17 -55 14 -12 -4 -13 0
-4 21 l10 26 -68 2 c-105 3 -214 3 -249 0z m397 -97 c0 -9 -6 -12 -15 -9 -8 4
-15 10 -15 15 0 5 7 9 15 9 8 0 15 -7 15 -15z m-693 -367 c-2 -13 -4 -3 -4 22
0 25 2 35 4 23 2 -13 2 -33 0 -45z m83 -182 c0 -11 -19 -15 -25 -6 -3 5 1 10
9 10 9 0 16 -2 16 -4z m50 -86 c0 -5 -2 -10 -4 -10 -3 0 -8 5 -11 10 -3 6 -1
10 4 10 6 0 11 -4 11 -10z"/>
<path d="M16560 4885 l0 -445 45 0 45 0 0 445 0 445 -45 0 -45 0 0 -445z"/>
<path d="M16981 4885 l1 -445 298 0 298 0 0 45 -1 45 -238 0 c-131 0 -249 4
-263 10 l-26 9 3 391 2 390 -38 0 -38 0 2 -445z"/>
<path d="M19340 5321 c0 -17 15 -19 28 -5 11 12 9 14 -8 14 -11 0 -20 -4 -20
-9z"/>
<path d="M19448 5323 c6 -2 18 -2 25 0 6 3 1 5 -13 5 -14 0 -19 -2 -12 -5z"/>
<path d="M19605 5311 c32 -20 45 -18 45 5 0 10 -11 14 -37 14 l-38 0 30 -19z"/>
<path d="M19267 5276 c-4 -10 -5 -21 -2 -24 9 -9 17 6 13 25 -3 17 -4 17 -11
-1z"/>
<path d="M19340 5260 c-24 -8 -23 -8 8 -9 20 -1 31 3 27 9 -3 6 -7 10 -8 9 -1
-1 -13 -5 -27 -9z"/>
<path d="M20318 5253 c7 -3 16 -2 19 1 4 3 -2 6 -13 5 -11 0 -14 -3 -6 -6z"/>
<path d="M19220 5240 c0 -5 4 -10 9 -10 6 0 13 5 16 10 3 6 -1 10 -9 10 -9 0
-16 -4 -16 -10z"/>
<path d="M19282 5238 c-16 -16 -15 -28 3 -28 8 0 15 2 15 4 0 2 3 11 6 20 7
19 -7 21 -24 4z"/>
<path d="M19180 5190 c0 -11 5 -20 10 -20 6 0 10 9 10 20 0 11 -4 20 -10 20
-5 0 -10 -9 -10 -20z"/>
<path d="M19840 5180 c0 -5 5 -10 10 -10 6 0 10 5 10 10 0 6 -4 10 -10 10 -5
0 -10 -4 -10 -10z"/>
<path d="M19140 5150 c0 -13 -7 -20 -20 -20 -16 0 -20 -7 -20 -35 0 -22 -6
-38 -15 -41 -27 -11 -16 -24 20 -24 19 0 35 5 35 10 0 6 -4 10 -10 10 -18 0
-10 17 15 30 14 7 25 20 25 29 -1 14 -2 13 -11 -1 -5 -10 -17 -18 -24 -18 -22
0 -18 28 5 35 20 6 29 45 10 45 -5 0 -10 -9 -10 -20z"/>
<path d="M20312 5054 c-1 -28 3 -44 12 -47 15 -6 26 1 26 16 0 5 -6 7 -14 4
-11 -4 -16 4 -19 31 l-4 37 -1 -41z"/>
<path d="M19061 4908 c0 -57 4 -112 9 -123 5 -13 9 25 9 103 1 75 -3 122 -9
122 -6 0 -10 -40 -9 -102z"/>
<path d="M19120 4983 c0 -21 3 -24 9 -14 5 8 7 20 4 28 -8 21 -13 15 -13 -14z"/>
<path d="M19907 4945 c-4 -8 -2 -17 3 -20 6 -4 10 3 10 14 0 25 -6 27 -13 6z"/>
<path d="M19973 4890 c0 -25 2 -35 4 -22 2 12 2 32 0 45 -2 12 -4 2 -4 -23z"/>
<path d="M20333 4890 c0 -25 2 -35 4 -22 2 12 2 32 0 45 -2 12 -4 2 -4 -23z"/>
<path d="M19913 4810 c0 -25 2 -35 4 -22 2 12 2 32 0 45 -2 12 -4 2 -4 -23z"/>
<path d="M20313 4770 c0 -47 2 -66 4 -42 2 23 2 61 0 85 -2 23 -4 4 -4 -43z"/>
<path d="M19107 4741 c-16 -17 -16 -19 7 -44 20 -22 29 -25 48 -18 22 9 22 10
2 10 -26 1 -56 32 -36 38 13 5 17 33 5 32 -5 0 -16 -8 -26 -18z"/>
<path d="M19105 4680 c3 -5 8 -10 11 -10 2 0 4 5 4 10 0 6 -5 10 -11 10 -5 0
-7 -4 -4 -10z"/>
<path d="M20333 4650 c0 -25 2 -35 4 -22 2 12 2 32 0 45 -2 12 -4 2 -4 -23z"/>
<path d="M19200 4625 c0 -8 7 -15 16 -15 14 0 14 3 4 15 -7 8 -14 15 -16 15
-2 0 -4 -7 -4 -15z"/>
<path d="M19156 4621 c-14 -5 -16 -10 -8 -15 7 -4 17 -4 22 -1 6 3 10 -3 10
-14 0 -12 2 -21 4 -21 2 0 11 -3 20 -6 22 -8 20 16 -3 44 -11 12 -21 22 -23
21 -1 0 -12 -4 -22 -8z"/>
<path d="M19840 4601 c0 -6 4 -12 8 -15 5 -3 9 1 9 9 0 8 -4 15 -9 15 -4 0 -8
-4 -8 -9z"/>
<path d="M19277 4544 c3 -7 0 -14 -7 -14 -6 0 -9 -4 -6 -9 3 -5 16 -7 29 -3
20 5 21 4 8 -11 -12 -15 -10 -17 23 -17 29 0 36 4 36 20 0 16 -7 20 -30 20
-16 0 -30 4 -30 9 0 5 -7 11 -14 14 -10 4 -13 1 -9 -9z"/>
<path d="M19700 4550 c0 -11 7 -14 53 -25 24 -5 26 -4 16 8 -8 8 -21 12 -31 9
-10 -2 -18 1 -18 7 0 6 -4 11 -10 11 -5 0 -10 -5 -10 -10z"/>
<path d="M19230 4534 c0 -8 5 -12 10 -9 6 4 8 11 5 16 -9 14 -15 11 -15 -7z"/>
<path d="M17730 4507 c0 -12 9 -30 19 -39 19 -16 21 -16 45 3 14 11 26 29 26
40 0 16 -7 19 -45 19 -40 0 -45 -2 -45 -23z"/>
<path d="M19420 4485 c0 -25 5 -45 10 -45 6 0 10 20 10 45 0 25 -4 45 -10 45
-5 0 -10 -20 -10 -45z"/>
<path d="M19590 4522 c0 -4 17 -6 38 -4 58 5 62 10 10 11 -27 1 -48 -3 -48 -7z"/>
<path d="M19500 4465 c0 -22 40 -28 116 -16 l69 10 -67 -5 c-56 -4 -68 -2 -68
11 0 9 -9 15 -25 15 -15 0 -25 -6 -25 -15z"/>
</g>
</svg>
